<?xml version="1.0" ?><svg id="Layer_1" style="enable-background:new 0 0 32 32;" version="1.1" viewBox="0 0 32 32"
  width="25px" height="40px"
  xml:space="preserve" xmlns="http://www.w3.org/2000/svg" xmlns:xlink="http://www.w3.org/1999/xlink">
  <g>
    <path stroke="#00a942" fill="#00a942"
      d="M23.43,13.51c0.16,0.08,0.34,0.13,0.51,0.13c0.18,0,0.35-0.04,0.51-0.13c0.18-0.1,4.37-2.31,4.37-6.63   c0-2.69-2.19-4.88-4.88-4.88c-2.69,0-4.88,2.19-4.88,4.88C19.06,11.2,23.25,13.41,23.43,13.51z M23.84,4.9h0.13   c1.15,0,2.08,0.93,2.08,2.08c0,1.14-0.93,2.08-2.08,2.08s-2.14-0.94-2.14-2.08C21.83,5.82,22.69,4.9,23.84,4.9z" />
    <path stroke="#00a942" fill="#00a942"
      d="M24.32,18.99H7.68c-1.26,0-2.29-1.03-2.29-2.29v-0.45c0-1.26,1.03-2.29,2.29-2.29h9.67c0.61,0,1.11-0.5,1.11-1.11   s-0.49-1.11-1.11-1.11H7.68c-2.48,0-4.5,2.02-4.5,4.5v0.45c0,2.48,2.02,4.5,4.5,4.5h16.63c1.26,0,2.29,1.03,2.29,2.29   s-1.03,2.29-2.29,2.29H13.74c-0.61,0-1.11,0.5-1.11,1.11c0,0.61,0.49,1.11,1.11,1.11h10.58c2.48,0,4.5-2.02,4.5-4.5   S26.8,18.99,24.32,18.99z" />
    <path stroke="#00a942" fill="#00a942"
      d="M10.64,24.64c-0.43-0.43-1.13-0.43-1.56,0L8.13,25.6l-0.95-0.95c-0.43-0.43-1.13-0.43-1.56,0c-0.43,0.43-0.43,1.13,0,1.56   l0.95,0.95l-0.95,0.95c-0.43,0.43-0.43,1.13,0,1.56C5.83,29.89,6.11,30,6.39,30s0.57-0.11,0.78-0.32l0.95-0.95l0.95,0.95   C9.3,29.89,9.58,30,9.86,30s0.57-0.11,0.78-0.32c0.43-0.43,0.43-1.13,0-1.56l-0.95-0.95l0.95-0.95   C11.08,25.77,11.08,25.08,10.64,24.64z" />
  </g>
</svg>